<svg width="52" height="52" viewBox="0 0 52 52" fill="none" xmlns="http://www.w3.org/2000/svg">
<path fill-rule="evenodd" clip-rule="evenodd" d="M34.5786 5.32744L44.9971 15.746C45.2065 15.9551 45.3243 16.2389 45.3245 16.5348V40.3486C45.3245 41.0394 45.0501 41.7019 44.5616 42.1904C44.0732 42.6788 43.4107 42.9533 42.7199 42.9533H38.2548C37.9588 42.9533 37.6748 42.8357 37.4655 42.6263C37.2561 42.417 37.1385 42.133 37.1385 41.837C37.1385 41.5409 37.2561 41.257 37.4655 41.0477C37.6748 40.8383 37.9588 40.7207 38.2548 40.7207H42.7199C42.8186 40.7207 42.9132 40.6815 42.983 40.6117C43.0528 40.542 43.092 40.4473 43.092 40.3486V17.6511H33.7897C33.4937 17.6511 33.2097 17.5335 33.0004 17.3241C32.791 17.1148 32.6734 16.8309 32.6734 16.5348V7.23255H15.9294C15.8307 7.23255 15.736 7.27175 15.6662 7.34153C15.5965 7.41131 15.5573 7.50595 15.5573 7.60464V23.9766C15.5573 24.2727 15.4397 24.5566 15.2303 24.766C15.021 24.9753 14.737 25.0929 14.441 25.0929C14.1449 25.0929 13.861 24.9753 13.6517 24.766C13.4423 24.5566 13.3247 24.2727 13.3247 23.9766V7.60464C13.3247 6.91384 13.5991 6.25134 14.0876 5.76288C14.5761 5.27442 15.2386 5 15.9294 5H33.7897C34.0857 5.00026 34.3694 5.11804 34.5786 5.32744ZM41.5143 15.4185L34.906 8.81021V15.4185H41.5143ZM14.1441 31.7905V32.4029C9.83757 32.9647 7 34.7918 7 37.0675V41.4649C7 44.2221 11.2229 46.3021 16.8232 46.3021C22.4235 46.3021 26.6464 44.2221 26.6464 41.4649V40.8559C30.8603 40.3095 33.7905 38.4845 33.7905 36.188V31.7905C33.7905 29.0333 29.5677 26.9534 23.9673 26.9534C18.367 26.9534 14.1441 29.0333 14.1441 31.7905ZM16.8232 40.1457C12.223 40.1457 8.78604 38.5208 8.78604 37.0675C8.78604 35.9978 10.8098 34.6698 14.1441 34.1805V36.188C14.1441 37.837 15.6522 39.2409 18.06 40.105C17.6526 40.1314 17.2396 40.1457 16.8232 40.1457ZM26.6464 36.4584V39.0738C25.7594 39.2028 24.864 39.2672 23.9673 39.2662C23.0707 39.2672 22.1753 39.2028 21.2883 39.0738V36.4584C22.1766 36.5724 23.0715 36.629 23.9673 36.6277C24.8632 36.629 25.7581 36.5724 26.6464 36.4584ZM15.9302 36.188V34.6412C16.8411 35.2766 18.0611 35.7889 19.5023 36.133V38.7022C17.3155 38.1009 15.9302 37.1103 15.9302 36.188ZM15.9302 31.7905C15.9302 30.3372 19.3672 28.7123 23.9673 28.7123C28.5675 28.7123 32.0045 30.3372 32.0045 31.7905C32.0045 33.2439 28.5675 34.8687 23.9673 34.8687C19.3672 34.8687 15.9302 33.2439 15.9302 31.7905ZM32.0045 34.6412V36.188C32.0045 37.1103 30.6192 38.1009 28.4324 38.7022V36.133C29.8735 35.7889 31.0936 35.2766 32.0045 34.6412ZM24.8604 41.0065V41.4649C24.8604 42.3873 23.4751 43.3778 21.2883 43.9791V41.4C21.7647 41.2873 22.2346 41.1493 22.6959 40.9867C23.1112 41.0109 23.5342 41.0252 23.9673 41.0252C24.2699 41.0252 24.5668 41.0175 24.8604 41.0065ZM19.5023 41.7287V44.3507C17.7257 44.6072 15.9207 44.6072 14.1441 44.3507V41.7353C15.0325 41.8493 15.9274 41.9059 16.8232 41.9046C17.7192 41.9051 18.6142 41.8463 19.5023 41.7287ZM12.3581 41.4099V43.9791C10.1713 43.3778 8.78604 42.3873 8.78604 41.4649V39.9181C9.69692 40.5535 10.917 41.0658 12.3581 41.4099Z" fill="#87FF4F"/>
</svg>
