<svg width="51" height="52" viewBox="0 0 51 52" fill="none" xmlns="http://www.w3.org/2000/svg">
<g clip-path="url(#clip0_382_945)">
<path d="M49.4406 17.1446L25.5955 4.14464C25.4233 4.0497 25.2308 4 25.0351 4C24.8395 4 24.6469 4.0497 24.4748 4.14464L0.629663 17.1446C0.439404 17.2487 0.280349 17.4037 0.169458 17.5929C0.058568 17.7821 0 17.9986 0 18.2192C0 18.4398 0.058568 18.6562 0.169458 18.8455C0.280349 19.0347 0.439404 19.1896 0.629663 19.2937L6.35646 22.4178V32.4968C6.35629 33.195 6.60738 33.8688 7.06188 34.39C9.61927 37.3007 15.356 42.1879 25.0351 42.1879C28.4434 42.2206 31.823 41.5483 34.9706 40.2115V47.4692C34.9706 47.7924 35.0962 48.1024 35.3198 48.331C35.5434 48.5595 35.8466 48.6879 36.1628 48.6879C36.4791 48.6879 36.7823 48.5595 37.0059 48.331C37.2295 48.1024 37.3551 47.7924 37.3551 47.4692V39.009C39.4713 37.7908 41.3804 36.2302 43.0084 34.3879C43.4639 33.8682 43.7152 33.1946 43.7138 32.4968V22.4178L49.4406 19.2937C49.6309 19.1896 49.7899 19.0347 49.9008 18.8455C50.0117 18.6562 50.0703 18.4398 50.0703 18.2192C50.0703 17.9986 50.0117 17.7821 49.9008 17.5929C49.7899 17.4037 49.6309 17.2487 49.4406 17.1446ZM25.0351 39.7504C16.2919 39.7504 11.1255 35.371 8.83635 32.7609C8.77479 32.6873 8.74097 32.5937 8.74097 32.4968V23.7178L24.4748 32.2937C24.6473 32.3876 24.8397 32.4367 25.0351 32.4367C25.2306 32.4367 25.423 32.3876 25.5955 32.2937L34.9706 27.1831V37.5425C32.3874 38.8059 29.0987 39.7504 25.0351 39.7504ZM41.3293 32.4968C41.3293 32.5937 41.2955 32.6873 41.2339 32.7609C40.0888 34.0577 38.7851 35.1985 37.3551 36.1551V25.8831L41.3293 23.7178V32.4968ZM36.9279 23.3562C36.8664 23.3016 36.7999 23.2533 36.7292 23.212L25.6015 17.1467C25.3242 17.0106 25.0063 16.9892 24.714 17.0871C24.4218 17.185 24.1778 17.3945 24.0332 17.672C23.8885 17.9494 23.8543 18.2732 23.9377 18.5758C24.0211 18.8784 24.2157 19.1363 24.4807 19.2957L34.4241 24.7192L25.0351 29.8379L3.72357 18.2192L25.0351 6.60042L46.3467 18.2192L36.9279 23.3562Z" fill="#87FF4F"/>
</g>
<defs>
<clipPath id="clip0_382_945">
<rect width="50.8696" height="52" fill="white"/>
</clipPath>
</defs>
</svg>
