<svg width="52" height="52" viewBox="0 0 52 52" fill="none" xmlns="http://www.w3.org/2000/svg">
<path fill-rule="evenodd" clip-rule="evenodd" d="M27.013 4.26358C26.6616 3.91213 26.0917 3.91214 25.7403 4.2636L15.7636 14.2403C15.5062 14.4977 15.4292 14.8848 15.5685 15.2211C15.7078 15.5574 16.036 15.7767 16.4 15.7767H36.3542C36.7182 15.7767 37.0464 15.5574 37.1857 15.2211C37.325 14.8847 37.248 14.4976 36.9906 14.2402L27.013 4.26358ZM18.5728 13.9767L26.3767 6.17276L34.1813 13.9767H18.5728ZM11.7828 18.5949C11.5441 18.5949 11.3151 18.6898 11.1464 18.8586L4.26352 25.7432C3.91212 26.0947 3.91217 26.6645 4.26362 27.016L25.741 48.4924C26.0924 48.8439 26.6622 48.8439 27.0137 48.4925L48.4929 27.016C48.6617 26.8472 48.7565 26.6183 48.7565 26.3796C48.7565 26.1409 48.6617 25.9119 48.4929 25.7432L41.6083 18.8585C41.4395 18.6897 41.2106 18.5949 40.9719 18.5949H31.1737C30.8097 18.5949 30.4815 18.8142 30.3422 19.1505C30.2029 19.4868 30.2799 19.8739 30.5373 20.1313L36.7855 26.3795L26.3774 36.7852L15.9694 26.3796L22.2208 20.1315C22.4783 19.8741 22.5554 19.487 22.4161 19.1506C22.2768 18.8142 21.9486 18.5949 21.5846 18.5949H11.7828ZM6.17272 26.3795L12.1557 20.3949H19.411L14.0601 25.743C13.8913 25.9118 13.7964 26.1407 13.7964 26.3795C13.7963 26.6182 13.8912 26.8472 14.06 27.016L25.741 38.6943C26.0925 39.0457 26.6622 39.0457 27.0137 38.6943L38.6947 27.016C38.8635 26.8472 38.9584 26.6183 38.9584 26.3796C38.9584 26.1409 38.8636 25.9119 38.6948 25.7432L33.3465 20.3949H40.5991L46.5837 26.3795L26.3774 46.5833L6.17272 26.3795Z" fill="#87FF4F"/>
</svg>
