<svg width="32" height="32" viewBox="0 0 32 32" fill="none" xmlns="http://www.w3.org/2000/svg">
<path d="M12.9998 17.4999C12.9998 17.7966 12.9118 18.0866 12.747 18.3332C12.5822 18.5799 12.3479 18.7722 12.0738 18.8857C11.7997 18.9992 11.4981 19.0289 11.2072 18.9711C10.9162 18.9132 10.6489 18.7703 10.4391 18.5606C10.2294 18.3508 10.0865 18.0835 10.0286 17.7925C9.97074 17.5016 10.0004 17.2 10.114 16.9259C10.2275 16.6518 10.4198 16.4175 10.6664 16.2527C10.9131 16.0879 11.2031 15.9999 11.4998 15.9999C11.8976 15.9999 12.2792 16.1579 12.5605 16.4392C12.8418 16.7205 12.9998 17.1021 12.9998 17.4999ZM20.4998 15.9999C20.2031 15.9999 19.9131 16.0879 19.6664 16.2527C19.4198 16.4175 19.2275 16.6518 19.114 16.9259C19.0004 17.2 18.9707 17.5016 19.0286 17.7925C19.0865 18.0835 19.2294 18.3508 19.4391 18.5606C19.6489 18.7703 19.9162 18.9132 20.2072 18.9711C20.4981 19.0289 20.7997 18.9992 21.0738 18.8857C21.3479 18.7722 21.5822 18.5799 21.747 18.3332C21.9118 18.0866 21.9998 17.7966 21.9998 17.4999C21.9998 17.1021 21.8418 16.7205 21.5605 16.4392C21.2791 16.1579 20.8976 15.9999 20.4998 15.9999ZM29.806 24.1124L21.431 27.8261C21.1792 27.9381 20.9072 27.9974 20.6316 28.0003C20.356 28.0033 20.0827 27.9498 19.8286 27.8433C19.5744 27.7368 19.3447 27.5794 19.1536 27.3808C18.9625 27.1822 18.814 26.9467 18.7173 26.6886L17.7035 23.9386C17.1435 23.9761 16.5756 23.9953 15.9998 23.9961C15.424 23.997 14.856 23.9778 14.296 23.9386L13.2823 26.6886C13.1854 26.9466 13.0368 27.182 12.8457 27.3805C12.6546 27.5789 12.4249 27.7363 12.1708 27.8428C11.9167 27.9493 11.6435 28.0028 11.3679 27.9999C11.0924 27.997 10.8204 27.9379 10.5685 27.8261L2.19355 24.1124C1.76128 23.9234 1.41016 23.5871 1.20275 23.1633C0.995344 22.7396 0.945126 22.256 1.06105 21.7986L4.7498 7.24989C4.84715 6.87153 5.05272 6.52976 5.34134 6.26645C5.62997 6.00314 5.98911 5.8297 6.3748 5.76739L10.8823 5.02614C11.3792 4.94622 11.8881 5.05397 12.3099 5.32844C12.7318 5.60291 13.0365 6.02447 13.1648 6.51114L13.5723 8.11614C14.3665 8.03864 15.1756 7.99989 15.9998 7.99989C16.824 7.99989 17.6323 8.03864 18.4248 8.11614L18.8323 6.51114C18.9603 6.02432 19.265 5.60258 19.6869 5.32807C20.1088 5.05356 20.6179 4.94593 21.1148 5.02614L25.6248 5.76739C26.0105 5.8297 26.3696 6.00314 26.6582 6.26645C26.9469 6.52976 27.1524 6.87153 27.2498 7.24989L30.941 21.7974C31.0571 22.2552 31.0067 22.7393 30.7988 23.1634C30.5909 23.5874 30.239 23.9238 29.806 24.1124ZM28.9998 22.2849L25.3085 7.74989C25.3085 7.74989 25.3085 7.74989 25.2985 7.74989L20.791 6.99989C20.7878 6.99803 20.7841 6.99704 20.7804 6.99704C20.7767 6.99704 20.773 6.99803 20.7698 6.99989L20.416 8.39239C21.041 8.50989 21.666 8.64989 22.2698 8.81989C22.5078 8.88057 22.7152 9.02673 22.8524 9.2305C22.9895 9.43428 23.0469 9.68141 23.0135 9.92478C22.9801 10.1681 22.8584 10.3907 22.6714 10.55C22.4844 10.7094 22.2454 10.7943 21.9998 10.7886C21.9085 10.7884 21.8177 10.7758 21.7298 10.7511C19.8622 10.2444 17.9349 9.99168 15.9998 9.99989C14.0648 9.99127 12.1374 10.2435 10.2698 10.7499C10.1422 10.7893 10.008 10.8028 9.87515 10.7896C9.74227 10.7763 9.61339 10.7366 9.49612 10.6727C9.37885 10.6088 9.27556 10.5221 9.19234 10.4177C9.10912 10.3132 9.04767 10.1932 9.0116 10.0646C8.97553 9.93602 8.96558 9.80153 8.98234 9.66904C8.99909 9.53656 9.04221 9.40877 9.10915 9.29322C9.17609 9.17768 9.2655 9.0767 9.37209 8.99627C9.47869 8.91583 9.60031 8.85756 9.72979 8.82489C10.3323 8.65489 10.9523 8.51489 11.5823 8.39739L11.2285 6.99989C11.2285 6.99989 11.2285 6.99989 11.2135 6.99989L6.70105 7.74114C6.69736 7.74013 6.69348 7.74013 6.6898 7.74114L2.9998 22.2911L11.3748 25.9999C11.379 26.0022 11.3837 26.0034 11.3885 26.0034C11.3933 26.0034 11.3981 26.0022 11.4023 25.9999L12.2498 23.7149C11.4007 23.585 10.56 23.4047 9.7323 23.1749C9.48576 23.0961 9.27937 22.9248 9.15651 22.697C9.03365 22.4692 9.0039 22.2027 9.0735 21.9534C9.1431 21.7041 9.30664 21.4915 9.52974 21.3603C9.75284 21.2291 10.0181 21.1896 10.2698 21.2499C12.1373 21.7568 14.0647 22.0091 15.9998 21.9999C17.9349 22.0091 19.8623 21.7568 21.7298 21.2499C21.9852 21.1783 22.2587 21.2111 22.4899 21.3411C22.7212 21.4711 22.8913 21.6876 22.9629 21.943C23.0345 22.1985 23.0017 22.4719 22.8717 22.7031C22.7418 22.9344 22.5252 23.1045 22.2698 23.1761C21.4412 23.4056 20.5997 23.5855 19.7498 23.7149L20.5935 25.9999C20.5976 26.0021 20.6021 26.0032 20.6067 26.0032C20.6113 26.0032 20.6158 26.0021 20.6198 25.9999L28.9998 22.2849Z" fill="white"/>
</svg>
