<svg width="47" height="47" viewBox="0 0 47 47" fill="none" xmlns="http://www.w3.org/2000/svg">
<path d="M39.2266 15.1171L28.9454 4.83586C28.8089 4.69951 28.6469 4.59139 28.4686 4.51768C28.2903 4.44396 28.0992 4.4061 27.9062 4.40625H10.2812C9.50218 4.40625 8.75501 4.71574 8.20412 5.26662C7.65324 5.81751 7.34375 6.56468 7.34375 7.34375V23.5C7.34375 23.8895 7.49849 24.2631 7.77394 24.5386C8.04938 24.814 8.42296 24.9688 8.8125 24.9688C9.20204 24.9688 9.57562 24.814 9.85106 24.5386C10.1265 24.2631 10.2812 23.8895 10.2812 23.5V7.34375H26.4375V16.1562C26.4375 16.5458 26.5922 16.9194 26.8677 17.1948C27.1431 17.4703 27.5167 17.625 27.9062 17.625H36.7188V39.6562H32.3125C31.923 39.6562 31.5494 39.811 31.2739 40.0864C30.9985 40.3619 30.8438 40.7355 30.8438 41.125C30.8438 41.5145 30.9985 41.8881 31.2739 42.1636C31.5494 42.439 31.923 42.5938 32.3125 42.5938H36.7188C37.4978 42.5938 38.245 42.2843 38.7959 41.7334C39.3468 41.1825 39.6562 40.4353 39.6562 39.6562V16.1562C39.6564 15.9633 39.6185 15.7722 39.5448 15.5939C39.4711 15.4156 39.363 15.2536 39.2266 15.1171ZM29.375 9.4202L34.6423 14.6875H29.375V9.4202Z" fill="#87FF4F"/>
<path d="M9.54688 29.7568V29.0537C9.54688 25.8881 14.3218 23.5 20.6543 23.5C26.9868 23.5 31.7617 25.8881 31.7617 29.0537V34.1025C31.7617 36.7393 28.4484 38.8346 23.6836 39.4619V40.1611C23.6836 43.3267 18.9087 45.7148 12.5762 45.7148C6.24368 45.7148 1.46875 43.3267 1.46875 40.1611V35.1123C1.46875 32.4995 4.67728 30.4017 9.54688 29.7568ZM3.48828 35.1123C3.48828 36.7809 7.37462 38.6465 12.5762 38.6465C13.047 38.6465 13.514 38.6301 13.9747 38.5998C11.2521 37.6077 9.54688 35.9958 9.54688 34.1025V31.7977C5.77666 32.3594 3.48828 33.8842 3.48828 35.1123ZM23.6836 37.4158V34.413C22.6792 34.5439 21.6672 34.6089 20.6543 34.6074C19.6414 34.6089 18.6294 34.5439 17.625 34.413V37.4158C18.6279 37.564 19.6405 37.6378 20.6543 37.6367C21.6681 37.6378 22.6806 37.564 23.6836 37.4158ZM11.5664 32.3266V34.1025C11.5664 35.1615 13.1328 36.2988 15.6055 36.9892V34.0394C13.976 33.6444 12.5964 33.0562 11.5664 32.3266ZM20.6543 25.5195C15.4527 25.5195 11.5664 27.3851 11.5664 29.0537C11.5664 30.7223 15.4527 32.5879 20.6543 32.5879C25.8559 32.5879 29.7422 30.7223 29.7422 29.0537C29.7422 27.3851 25.8559 25.5195 20.6543 25.5195ZM29.7422 34.1025V32.3266C28.7122 33.0562 27.3326 33.6444 25.7031 34.0394V36.9892C28.1758 36.2988 29.7422 35.1615 29.7422 34.1025ZM21.6641 40.1611V39.6348C21.3321 39.6474 20.9964 39.6562 20.6543 39.6562C20.1646 39.6562 19.6862 39.6398 19.2166 39.6121C18.695 39.7988 18.1637 39.9572 17.625 40.0867V43.0478C20.0977 42.3574 21.6641 41.2201 21.6641 40.1611ZM15.6055 43.4744V40.4641C14.6014 40.599 13.5893 40.6665 12.5762 40.666C11.5632 40.6674 10.5513 40.6025 9.54688 40.4716V43.4744C11.5557 43.7689 13.5967 43.7689 15.6055 43.4744ZM7.52734 43.0478V40.098C5.89783 39.703 4.51824 39.1148 3.48828 38.3852V40.1611C3.48828 41.2201 5.05468 42.3574 7.52734 43.0478Z" fill="#87FF4F"/>
</svg>
