<svg width="57" height="37" viewBox="0 0 57 37" fill="none" xmlns="http://www.w3.org/2000/svg">
<mask id="path-1-outside-1_223_1528" maskUnits="userSpaceOnUse" x="0" y="0" width="57" height="37" fill="black">
<rect fill="white" width="57" height="37"/>
<path fill-rule="evenodd" clip-rule="evenodd" d="M49.3504 2H53.97V5.86402H49.3504V2ZM12.6533 5.86405C12.3942 5.86405 12.1784 6.06912 12.1784 6.33895V6.63033C12.1784 6.88937 12.3942 7.10524 12.6533 7.10524H13.5167C13.7758 7.10524 13.9916 6.88937 13.9916 6.63033V6.33895C13.9916 6.07992 13.7758 5.86405 13.5167 5.86405H12.6533ZM15.3408 5.86405C15.0818 5.86405 14.8659 6.06912 14.8659 6.33895V6.63033C14.8659 6.88937 15.0818 7.10524 15.3408 7.10524C15.5998 7.10524 15.8157 6.88937 15.8157 6.63033V6.33895C15.8157 6.07992 15.5998 5.86405 15.3408 5.86405ZM18.4277 15.9774H2.85293H2.5939V11.5197L11.7898 5.88559H2.5939V2.00002H18.4277V5.918C18.363 5.88562 18.2874 5.86405 18.2118 5.86405H16.8735C16.6144 5.86405 16.3986 6.06912 16.3986 6.33895V6.63033C16.3986 6.88937 16.6144 7.10524 16.8735 7.10524H17.4455L9.38291 12.1134H18.4277V15.9774ZM7.52617 25.3675C7.22396 25.551 6.9865 25.7884 6.81381 26.0691L6.83538 26.0475C6.6519 26.3389 6.54398 26.6195 6.47922 26.8894C6.42525 27.1592 6.39289 27.4614 6.39289 27.796C6.39289 28.2601 6.45764 28.6702 6.58716 29.0264C6.72747 29.3826 6.94332 29.7064 7.24553 30.0086C7.54775 30.3109 7.96869 30.5375 8.52994 30.6994C9.0804 30.8613 9.728 30.9369 10.5591 30.9369C11.3902 30.9369 12.1025 30.8721 12.7069 30.7426C13.3114 30.6131 13.7539 30.4512 14.0345 30.2677C14.3044 30.0734 14.531 29.8899 14.6929 29.6957C14.8548 29.5014 14.952 29.3395 14.9736 29.21L15.0059 29.0157H19.3449C19.3449 29.6957 19.2693 30.3108 19.1074 30.8613C18.9563 31.4118 18.6757 31.9514 18.2763 32.4695C17.877 32.9876 17.3589 33.4193 16.7221 33.7647C16.0853 34.1101 15.2542 34.3907 14.2396 34.5958C13.225 34.8009 12.0378 34.9088 10.6994 34.9088C9.04803 34.9088 7.66649 34.7685 6.55478 34.4986C5.44307 34.2288 4.54721 33.7971 3.87803 33.2035C3.19805 32.6207 2.72315 31.9082 2.43173 31.0664C2.1511 30.2245 2 29.1991 2 27.9795C2 26.6627 2.18346 25.5402 2.55044 24.6012C2.91741 23.673 3.47867 22.9174 4.21262 22.3562C4.94656 21.7841 5.84241 21.374 6.87857 21.1258C7.91472 20.8775 9.15595 20.748 10.5807 20.748C12.1781 20.748 13.5596 20.8991 14.7037 21.2013C15.8478 21.5035 16.7544 21.9352 17.4236 22.4965C18.0928 23.0685 18.5785 23.7161 18.8807 24.4609C19.1829 25.2056 19.3341 26.0691 19.3341 27.0513H14.9951C14.9843 26.9865 14.9627 26.9002 14.9304 26.7923C14.9088 26.6843 14.8009 26.5008 14.6174 26.2418C14.4339 25.9828 14.1964 25.7453 13.905 25.5402C13.6136 25.3351 13.1711 25.1408 12.5882 24.9789C12.0054 24.817 11.3254 24.7307 10.5483 24.7307C9.85751 24.7307 9.2639 24.7954 8.74582 24.9142C8.22774 25.0329 7.82838 25.184 7.52617 25.3675ZM35.114 12.0918H24.3206V10.8398H34.434V7.11605H24.3206H20.0357C19.8954 7.11605 19.7659 7.05133 19.6795 6.95419V15.9882H35.114V12.1026V12.0918ZM28.6488 5.86405H20.0357C19.8954 5.86405 19.7659 5.92877 19.6795 6.02591V2.00002H35.114V5.88559H28.7675C28.7351 5.864 28.6488 5.86405 28.6488 5.86405ZM50.0621 29.1452L47.7091 25.972H39.9271C39.6897 25.972 39.4954 25.7561 39.4954 25.4971V25.2056C39.4954 24.9358 39.6897 24.7307 39.9271 24.7307H46.7917L43.9315 20.8667H38.0275V24.7307H38.2757C38.5132 24.7307 38.7075 24.9466 38.7075 25.2056V25.4971C38.7075 25.7561 38.5132 25.972 38.2757 25.972H38.0275V34.8441H42.2585V26.4145L48.5078 34.8441H54.2822V20.8667H50.0728V29.156L50.0621 29.1452ZM35.6532 25.9612C35.8907 25.9612 36.0849 25.7454 36.0849 25.4863V25.1949C36.0849 24.9359 35.8907 24.72 35.6532 24.72C35.4158 24.72 35.2215 24.9359 35.2215 25.1949V25.4863C35.2215 25.7454 35.4158 25.9612 35.6532 25.9612ZM33.991 25.9612C34.2285 25.9612 34.4228 25.7454 34.4228 25.4863V25.1949C34.4228 24.9359 34.2285 24.72 33.991 24.72H33.2031C32.9657 24.72 32.7714 24.9359 32.7714 25.1949V25.4863C32.7714 25.7454 32.9657 25.9612 33.2031 25.9612H33.991ZM28.7779 32.0271L32.9225 27.8717H32.9117C32.9441 27.8501 32.9549 27.8069 32.9549 27.7745C32.9549 27.7421 32.9117 27.6773 32.9117 27.6773L31.5842 26.3498C31.5626 26.3282 31.487 26.3174 31.487 26.3174H29.5982C29.5442 26.3174 29.4902 26.3498 29.4686 26.4037C29.4471 26.4577 29.501 26.5549 29.501 26.5549L30.7315 27.7853L28.6699 29.8468L26.6084 27.7853L27.8389 26.5549C27.8713 26.5117 27.8928 26.4577 27.8713 26.4037C27.8497 26.3498 27.7957 26.3174 27.7417 26.3174H25.8529C25.8205 26.3174 25.7557 26.3606 25.7557 26.3606L24.4282 27.6881C24.3742 27.7421 24.3742 27.8284 24.4282 27.8824L28.5836 32.0271C28.616 32.0595 28.6484 32.0702 28.6807 32.0702C28.7131 32.0702 28.7779 32.0271 28.7779 32.0271ZM28.562 23.5327L26.6408 25.4647V25.4539C26.6084 25.4971 26.5868 25.5511 26.6084 25.605C26.63 25.659 26.684 25.6914 26.7379 25.6914H28.7023H30.5912C30.6451 25.6914 30.6991 25.659 30.7207 25.605C30.7423 25.5511 30.6883 25.4539 30.6883 25.4539L28.7563 23.5327C28.7023 23.4788 28.562 23.5327 28.562 23.5327ZM37.0348 25.9612H37.0887L37.0995 25.9828C37.1859 26.5333 37.2398 27.1377 37.2398 27.7853C37.2398 28.8754 37.1211 29.8252 36.8837 30.6132C36.6462 31.4011 36.3116 32.081 35.8691 32.6315C35.4266 33.182 34.8437 33.6353 34.1206 33.9699C33.4082 34.3045 32.5879 34.5527 31.6813 34.693C30.7639 34.8333 29.7061 34.9089 28.4972 34.9089C25.4967 34.9089 23.3057 34.3045 21.9457 33.1064C20.5857 31.8976 19.9058 30.0411 19.9058 27.5155C19.9058 25.1733 20.5965 23.4464 21.9889 22.3239C23.3812 21.2014 25.5075 20.6401 28.3677 20.6401C29.5226 20.6401 30.5372 20.7049 31.4222 20.8452C32.3073 20.9747 33.1168 21.2122 33.8723 21.5467C34.6279 21.8813 35.2431 22.3131 35.718 22.8528C36.1713 23.3708 36.5383 24.0184 36.7973 24.7955C36.6786 24.8819 36.603 25.0222 36.603 25.1949V25.4863C36.603 25.7454 36.7973 25.9612 37.0348 25.9612ZM40.8668 6.33895C40.8668 6.06912 41.0827 5.86405 41.3417 5.86405H42.2052C42.4643 5.86405 42.6801 6.07992 42.6801 6.33895V6.63033C42.6801 6.90016 42.4643 7.10524 42.2052 7.10524H41.3417C41.0827 7.10524 40.8668 6.88937 40.8668 6.63033V6.33895ZM43.5544 6.33895C43.5544 6.06912 43.7703 5.86405 44.0293 5.86405C44.2883 5.86405 44.5042 6.07992 44.5042 6.33895V6.63033C44.5042 6.90016 44.2883 7.10524 44.0293 7.10524C43.7703 7.10524 43.5544 6.88937 43.5544 6.63033V6.33895ZM40.8021 7.5478L47.6558 15.9774H53.9915V7.10524H49.372V10.2785L46.7924 7.10524H45.5727C45.3029 7.10524 45.0978 6.88937 45.0978 6.63033V6.33895C45.0978 6.06912 45.3137 5.86405 45.5727 5.86405H45.7778L42.637 2.00002H36.161V15.9774H40.8021V7.5478Z"/>
</mask>
<path d="M53.97 2H55.97V0H53.97V2ZM49.3504 2V0H47.3504V2H49.3504ZM53.97 5.86402V7.86403H55.97V5.86402H53.97ZM49.3504 5.86402H47.3504V7.86403H49.3504V5.86402ZM18.4277 15.9774V17.9774H20.4277V15.9774H18.4277ZM2.5939 15.9774H0.593903V17.9774H2.5939V15.9774ZM2.5939 11.5197L1.54906 9.81436L0.593903 10.3996V11.5197H2.5939ZM11.7898 5.88559L12.8347 7.59096L18.8825 3.88559H11.7898V5.88559ZM2.5939 5.88559H0.593903V7.88559H2.5939V5.88559ZM2.5939 2.00002V2.06232e-05H0.593903V2.00002H2.5939ZM18.4277 2.00002H20.4277V2.06232e-05H18.4277V2.00002ZM18.4277 5.918L17.5333 7.70685L20.4277 9.1541V5.918H18.4277ZM17.4455 7.10524L18.5008 8.80416L24.4557 5.10524H17.4455V7.10524ZM9.38291 12.1134L8.32761 10.4144L2.37268 14.1134H9.38291V12.1134ZM18.4277 12.1134H20.4277V10.1134H18.4277V12.1134ZM6.81381 26.0691L5.11049 25.0209L8.22694 27.4844L6.81381 26.0691ZM7.52617 25.3675L8.56413 27.0771H8.56413L7.52617 25.3675ZM6.83538 26.0475L8.52785 27.1131L5.42225 24.6322L6.83538 26.0475ZM6.47922 26.8894L4.53444 26.4226L4.52554 26.4597L4.51806 26.4971L6.47922 26.8894ZM6.58716 29.0264L4.70757 29.7099L4.71663 29.7348L4.72634 29.7595L6.58716 29.0264ZM7.24553 30.0086L8.65975 28.5944L8.65975 28.5944L7.24553 30.0086ZM8.52994 30.6994L9.09428 28.7807L9.08426 28.7778L8.52994 30.6994ZM14.0345 30.2677L15.129 31.9416L15.1667 31.917L15.2031 31.8907L14.0345 30.2677ZM14.6929 29.6957L13.1565 28.4153L13.1565 28.4153L14.6929 29.6957ZM14.9736 29.21L13.0008 28.8812V28.8812L14.9736 29.21ZM15.0059 29.0157V27.0157H13.3117L13.0331 28.6869L15.0059 29.0157ZM19.3449 29.0157H21.3449V27.0157H19.3449V29.0157ZM19.1074 30.8613L17.1887 30.297L17.1836 30.3144L17.1788 30.3319L19.1074 30.8613ZM18.2763 32.4695L16.6923 31.2485L16.6923 31.2485L18.2763 32.4695ZM16.7221 33.7647L15.7685 32.0066L15.7685 32.0066L16.7221 33.7647ZM14.2396 34.5958L14.6359 36.5562L14.6359 36.5562L14.2396 34.5958ZM6.55478 34.4986L6.08303 36.4422H6.08304L6.55478 34.4986ZM3.87803 33.2035L5.20525 31.7073L5.19253 31.6961L5.17961 31.685L3.87803 33.2035ZM2.43173 31.0664L0.534359 31.6988L0.537994 31.7097L0.541754 31.7206L2.43173 31.0664ZM2.55044 24.6012L0.6905 23.8659L0.687635 23.8732L2.55044 24.6012ZM4.21262 22.3562L5.42752 23.9449L5.43483 23.9393L5.4421 23.9336L4.21262 22.3562ZM6.87857 21.1258L7.34454 23.0707L7.34455 23.0707L6.87857 21.1258ZM14.7037 21.2013L15.2145 19.2676H15.2145L14.7037 21.2013ZM17.4236 22.4965L18.7232 20.9762L18.716 20.9701L18.7088 20.9641L17.4236 22.4965ZM18.8807 24.4609L20.734 23.7088L20.7339 23.7088L18.8807 24.4609ZM19.3341 27.0513V29.0513H21.3341V27.0513H19.3341ZM14.9951 27.0513L13.0223 27.3801L13.3009 29.0513H14.9951V27.0513ZM14.9304 26.7923L12.9692 27.1845L12.9877 27.2768L13.0147 27.367L14.9304 26.7923ZM14.6174 26.2418L16.2494 25.0858L16.2494 25.0858L14.6174 26.2418ZM13.905 25.5402L12.754 27.1758H12.754L13.905 25.5402ZM8.74582 24.9142L8.29907 22.9647L8.29907 22.9647L8.74582 24.9142ZM24.3206 12.0918H22.3206V14.0918H24.3206V12.0918ZM35.114 12.0918H37.114V10.0918H35.114V12.0918ZM24.3206 10.8398V8.83976H22.3206V10.8398H24.3206ZM34.434 10.8398V12.8398H36.434V10.8398H34.434ZM34.434 7.11605H36.434V5.11605H34.434V7.11605ZM19.6795 6.95419L21.1744 5.62547L17.6795 1.69375V6.95419H19.6795ZM19.6795 15.9882H17.6795V17.9882H19.6795V15.9882ZM35.114 15.9882V17.9882H37.114V15.9882H35.114ZM28.6488 5.86405V7.86405L28.6498 7.86405L28.6488 5.86405ZM19.6795 6.02591H17.6795V11.2863L21.1744 7.35463L19.6795 6.02591ZM19.6795 2.00002V2.06232e-05H17.6795V2.00002H19.6795ZM35.114 2.00002H37.114V2.06232e-05H35.114V2.00002ZM35.114 5.88559V7.88559H37.114V5.88559H35.114ZM28.7675 5.88559L27.6581 7.54967L28.1619 7.88559H28.7675V5.88559ZM47.7091 25.972L49.3157 24.7808L48.716 23.972H47.7091V25.972ZM50.0621 29.1452L48.4555 30.3365L48.5426 30.4539L48.6458 30.5574L50.0621 29.1452ZM46.7917 24.7307V26.7307H50.7604L48.3992 23.5408L46.7917 24.7307ZM43.9315 20.8667L45.539 19.6768L44.9393 18.8667H43.9315V20.8667ZM38.0275 20.8667V18.8667H36.0275V20.8667H38.0275ZM38.0275 24.7307H36.0275V26.7307H38.0275V24.7307ZM38.0275 25.972V23.972H36.0275V25.972H38.0275ZM38.0275 34.8441H36.0275V36.8441H38.0275V34.8441ZM42.2585 34.8441V36.8441H44.2585V34.8441H42.2585ZM42.2585 26.4145L43.8651 25.2234L40.2585 20.3585V26.4145H42.2585ZM48.5078 34.8441L46.9012 36.0352L47.5009 36.8441H48.5078V34.8441ZM54.2822 34.8441V36.8441H56.2822V34.8441H54.2822ZM54.2822 20.8667H56.2822V18.8667H54.2822V20.8667ZM50.0728 20.8667V18.8667H48.0728V20.8667H50.0728ZM50.0728 29.156L48.6566 30.5682L52.0728 33.9941V29.156H50.0728ZM32.9225 27.8717L34.3386 29.2841L37.7421 25.8717H32.9225V27.8717ZM28.7779 32.0271L29.8869 33.6914L30.053 33.5807L30.1939 33.4395L28.7779 32.0271ZM32.9117 27.8717L31.8024 26.2075L26.3057 29.8717H32.9117V27.8717ZM32.9117 27.6773L34.5759 26.5681L34.466 26.4032L34.3259 26.2631L32.9117 27.6773ZM31.487 26.3174L31.769 24.3374L31.6287 24.3174H31.487V26.3174ZM29.501 26.5549L27.7526 27.526L27.8887 27.771L28.0868 27.9691L29.501 26.5549ZM30.7315 27.7853L32.1457 29.1995L33.5599 27.7853L32.1457 26.3711L30.7315 27.7853ZM28.6699 29.8468L27.2557 31.261L28.6699 32.6752L30.0841 31.261L28.6699 29.8468ZM26.6084 27.7853L25.1942 26.3711L23.78 27.7853L25.1942 29.1995L26.6084 27.7853ZM27.8389 26.5549L29.2531 27.9691L29.3536 27.8686L29.4388 27.7549L27.8389 26.5549ZM27.8713 26.4037L29.7282 25.661L29.7282 25.6609L27.8713 26.4037ZM25.7557 26.3606L24.6471 24.696L24.4819 24.806L24.3415 24.9464L25.7557 26.3606ZM24.4282 27.8824L23.014 29.2966L23.0158 29.2985L24.4282 27.8824ZM28.5836 32.0271L29.9979 30.6129L29.996 30.611L28.5836 32.0271ZM26.6408 25.4647H24.6408V30.3123L28.059 26.875L26.6408 25.4647ZM28.562 23.5327L27.844 21.6661L27.4452 21.8195L27.1438 22.1225L28.562 23.5327ZM26.6408 25.4539H28.6408V19.4541L25.0408 24.2539L26.6408 25.4539ZM26.6084 25.605L28.4654 24.8623L28.4654 24.8622L26.6084 25.605ZM30.7207 25.605L28.8637 24.8622L28.8637 24.8623L30.7207 25.605ZM30.6883 25.4539L32.4367 24.4828L32.2992 24.2353L32.0985 24.0357L30.6883 25.4539ZM28.7563 23.5327L27.3421 24.947L27.346 24.9509L28.7563 23.5327ZM37.0887 25.9612L38.8774 25.0666L38.3246 23.9612H37.0887V25.9612ZM37.0995 25.9828L39.0754 25.6729L39.0272 25.366L38.8882 25.0882L37.0995 25.9828ZM36.8837 30.6132L34.9687 30.036V30.0361L36.8837 30.6132ZM35.8691 32.6315L34.3103 31.3784L34.3103 31.3784L35.8691 32.6315ZM34.1206 33.9699L33.2807 32.1547L33.2703 32.1596L34.1206 33.9699ZM31.6813 34.693L31.9837 36.67L31.9872 36.6695L31.6813 34.693ZM21.9457 33.1064L20.617 34.6012L20.6236 34.6071L21.9457 33.1064ZM21.9889 22.3239L20.7336 20.7669H20.7336L21.9889 22.3239ZM31.4222 20.8452L31.1091 22.8205L31.1208 22.8224L31.1326 22.8241L31.4222 20.8452ZM35.718 22.8528L37.2231 21.5357L37.2194 21.5315L35.718 22.8528ZM36.7973 24.7955L37.9736 26.413L39.1576 25.5519L38.6947 24.1631L36.7973 24.7955ZM47.6558 15.9774L46.104 17.2391L46.7043 17.9774H47.6558V15.9774ZM40.8021 7.5478L42.3539 6.28609L38.8021 1.91766V7.5478H40.8021ZM53.9915 15.9774V17.9774H55.9915V15.9774H53.9915ZM53.9915 7.10524H55.9915V5.10524H53.9915V7.10524ZM49.372 7.10524V5.10524H47.372V7.10524H49.372ZM49.372 10.2785L47.8201 11.5401L51.372 15.9094V10.2785H49.372ZM46.7924 7.10524L48.3443 5.84366L47.744 5.10524H46.7924V7.10524ZM45.7778 5.86405V7.86405H49.9809L47.3298 4.60254L45.7778 5.86405ZM42.637 2.00002L44.1889 0.738512L43.5886 2.06232e-05H42.637V2.00002ZM36.161 2.00002V2.06232e-05H34.161V2.00002H36.161ZM36.161 15.9774H34.161V17.9774H36.161V15.9774ZM40.8021 15.9774V17.9774H42.8021V15.9774H40.8021ZM53.97 0H49.3504V4H53.97V0ZM55.97 5.86402V2H51.97V5.86402H55.97ZM49.3504 7.86403H53.97V3.86402H49.3504V7.86403ZM47.3504 2V5.86402H51.3504V2H47.3504ZM14.1784 6.33895C14.1784 7.20327 13.469 7.86405 12.6533 7.86405V3.86405C11.3195 3.86405 10.1784 4.93497 10.1784 6.33895H14.1784ZM14.1784 6.63033V6.33895H10.1784V6.63033H14.1784ZM12.6533 5.10524C13.4988 5.10524 14.1784 5.7848 14.1784 6.63033H10.1784C10.1784 7.99394 11.2897 9.10524 12.6533 9.10524V5.10524ZM13.5167 5.10524H12.6533V9.10524H13.5167V5.10524ZM11.9916 6.63033C11.9916 5.7848 12.6712 5.10524 13.5167 5.10524V9.10524C14.8803 9.10524 15.9916 7.99394 15.9916 6.63033H11.9916ZM11.9916 6.33895V6.63033H15.9916V6.33895H11.9916ZM13.5167 7.86405C12.6712 7.86405 11.9916 7.18448 11.9916 6.33895H15.9916C15.9916 4.97535 14.8803 3.86405 13.5167 3.86405V7.86405ZM12.6533 7.86405H13.5167V3.86405H12.6533V7.86405ZM16.8659 6.33895C16.8659 7.20327 16.1565 7.86405 15.3408 7.86405V3.86405C14.007 3.86405 12.8659 4.93497 12.8659 6.33895H16.8659ZM16.8659 6.63033V6.33895H12.8659V6.63033H16.8659ZM15.3408 5.10524C16.1863 5.10524 16.8659 5.7848 16.8659 6.63033H12.8659C12.8659 7.99394 13.9772 9.10524 15.3408 9.10524V5.10524ZM13.8157 6.63033C13.8157 5.7848 14.4953 5.10524 15.3408 5.10524V9.10524C16.7044 9.10524 17.8157 7.99394 17.8157 6.63033H13.8157ZM13.8157 6.33895V6.63033H17.8157V6.33895H13.8157ZM15.3408 7.86405C14.4953 7.86405 13.8157 7.18448 13.8157 6.33895H17.8157C17.8157 4.97535 16.7044 3.86405 15.3408 3.86405V7.86405ZM2.85293 17.9774H18.4277V13.9774H2.85293V17.9774ZM2.5939 17.9774H2.85293V13.9774H2.5939V17.9774ZM0.593903 11.5197V15.9774H4.5939V11.5197H0.593903ZM10.745 4.18021L1.54906 9.81436L3.63875 13.2251L12.8347 7.59096L10.745 4.18021ZM2.5939 7.88559H11.7898V3.88559H2.5939V7.88559ZM0.593903 2.00002V5.88559H4.5939V2.00002H0.593903ZM18.4277 2.06232e-05H2.5939V4.00002H18.4277V2.06232e-05ZM20.4277 5.918V2.00002H16.4277V5.918H20.4277ZM18.2118 7.86405C17.9201 7.86405 17.6905 7.78546 17.5333 7.70685L19.3222 4.12915C19.0354 3.98577 18.6547 3.86405 18.2118 3.86405V7.86405ZM16.8735 7.86405H18.2118V3.86405H16.8735V7.86405ZM18.3986 6.33895C18.3986 7.20327 17.6892 7.86405 16.8735 7.86405V3.86405C15.5397 3.86405 14.3986 4.93497 14.3986 6.33895H18.3986ZM18.3986 6.63033V6.33895H14.3986V6.63033H18.3986ZM16.8735 5.10524C17.719 5.10524 18.3986 5.7848 18.3986 6.63033H14.3986C14.3986 7.99394 15.5099 9.10524 16.8735 9.10524V5.10524ZM17.4455 5.10524H16.8735V9.10524H17.4455V5.10524ZM10.4382 13.8123L18.5008 8.80416L16.3902 5.40631L8.32761 10.4144L10.4382 13.8123ZM18.4277 10.1134H9.38291V14.1134H18.4277V10.1134ZM20.4277 15.9774V12.1134H16.4277V15.9774H20.4277ZM8.51713 27.1173C8.52035 27.112 8.52331 27.1083 8.52746 27.1042C8.5317 27.1 8.54232 27.0904 8.56413 27.0771L6.48821 23.658C5.92142 24.0021 5.45334 24.4637 5.11049 25.0209L8.51713 27.1173ZM5.42225 24.6322L5.40068 24.6538L8.22694 27.4844L8.24852 27.4628L5.42225 24.6322ZM8.42399 27.3561C8.434 27.3144 8.44604 27.277 8.46103 27.2407C8.47597 27.2046 8.49679 27.1625 8.52785 27.1131L5.14292 24.9819C4.83382 25.4728 4.6458 25.9586 4.53444 26.4226L8.42399 27.3561ZM8.39289 27.796C8.39289 27.5909 8.41267 27.4201 8.44038 27.2816L4.51806 26.4971C4.43783 26.8983 4.39289 27.332 4.39289 27.796H8.39289ZM8.46675 28.3429C8.43251 28.2488 8.39289 28.0776 8.39289 27.796H4.39289C4.39289 28.4427 4.48277 29.0917 4.70757 29.7099L8.46675 28.3429ZM8.65975 28.5944C8.53278 28.4675 8.47842 28.3707 8.44797 28.2934L4.72634 29.7595C4.97652 30.3945 5.35387 30.9454 5.83132 31.4229L8.65975 28.5944ZM9.08426 28.7778C8.73531 28.6771 8.65177 28.5865 8.65975 28.5944L5.83132 31.4229C6.44373 32.0353 7.20207 32.3979 7.97562 32.6211L9.08426 28.7778ZM10.5591 28.9369C9.84062 28.9369 9.39898 28.8703 9.09427 28.7807L7.96561 32.6182C8.76182 32.8523 9.61539 32.9369 10.5591 32.9369V28.9369ZM12.2879 28.787C11.8583 28.879 11.2931 28.9369 10.5591 28.9369V32.9369C11.4873 32.9369 12.3468 32.8652 13.126 32.6982L12.2879 28.787ZM12.94 28.5937C12.9679 28.5755 12.939 28.5989 12.8151 28.6434C12.6969 28.686 12.5245 28.7363 12.2879 28.787L13.126 32.6982C13.8215 32.5492 14.5447 32.3237 15.129 31.9416L12.94 28.5937ZM13.1565 28.4153C13.1684 28.4009 13.1588 28.4152 13.1057 28.4605C13.053 28.5055 12.9774 28.5644 12.8659 28.6446L15.2031 31.8907C15.4985 31.6781 15.8978 31.3739 16.2294 30.976L13.1565 28.4153ZM13.0008 28.8812C13.0238 28.7428 13.0601 28.6358 13.0882 28.5659C13.1166 28.4954 13.1434 28.4463 13.1583 28.4208C13.1854 28.3743 13.1941 28.3702 13.1565 28.4153L16.2294 30.976C16.4139 30.7546 16.8299 30.2372 16.9463 29.5387L13.0008 28.8812ZM13.0331 28.6869L13.0008 28.8812L16.9463 29.5387L16.9787 29.3445L13.0331 28.6869ZM19.3449 27.0157H15.0059V31.0157H19.3449V27.0157ZM21.0261 31.4256C21.2538 30.6517 21.3449 29.8397 21.3449 29.0157H17.3449C17.3449 29.5516 17.2848 29.97 17.1887 30.297L21.0261 31.4256ZM19.8603 33.6905C20.392 33.0008 20.8055 32.2305 21.0361 31.3907L17.1788 30.3319C17.1071 30.593 16.9593 30.902 16.6923 31.2485L19.8603 33.6905ZM17.6756 35.5228C18.5312 35.0587 19.2731 34.4523 19.8603 33.6905L16.6923 31.2485C16.4808 31.5228 16.1865 31.7799 15.7685 32.0066L17.6756 35.5228ZM14.6359 36.5562C15.7752 36.3259 16.8108 35.9918 17.6756 35.5228L15.7685 32.0066C15.3597 32.2284 14.7332 32.4556 13.8434 32.6355L14.6359 36.5562ZM10.6994 36.9088C12.14 36.9088 13.4637 36.7931 14.6359 36.5562L13.8434 32.6355C12.9864 32.8087 11.9356 32.9088 10.6994 32.9088V36.9088ZM6.08304 36.4422C7.39654 36.761 8.94659 36.9088 10.6994 36.9088V32.9088C9.14947 32.9088 7.93645 32.7759 7.02652 32.5551L6.08304 36.4422ZM2.5508 34.6996C3.52522 35.564 4.74375 36.1171 6.08303 36.4422L7.02653 32.5551C6.14239 32.3405 5.5692 32.0302 5.20525 31.7073L2.5508 34.6996ZM0.541754 31.7206C0.945099 32.8858 1.61782 33.9003 2.57644 34.722L5.17961 31.685C4.77828 31.341 4.50119 30.9307 4.3217 30.4121L0.541754 31.7206ZM0 27.9795C0 29.3565 0.169662 30.6047 0.534359 31.6988L4.32909 30.4339C4.13254 29.8443 4 29.0418 4 27.9795H0ZM0.687635 23.8732C0.20725 25.1024 0 26.4849 0 27.9795H4C4 26.8406 4.15968 25.978 4.41324 25.3292L0.687635 23.8732ZM2.99772 20.7674C1.95474 21.565 1.18119 22.6248 0.690515 23.8659L4.41036 25.3365C4.65363 24.7212 5.00261 24.2698 5.42752 23.9449L2.99772 20.7674ZM6.41259 19.1808C5.14545 19.4844 3.97754 20.0037 2.98313 20.7787L5.4421 23.9336C5.91559 23.5646 6.53937 23.2636 7.34454 23.0707L6.41259 19.1808ZM10.5807 18.748C9.04273 18.748 7.63873 18.887 6.41258 19.1808L7.34455 23.0707C8.19072 22.868 9.26916 22.748 10.5807 22.748V18.748ZM15.2145 19.2676C13.8562 18.9088 12.2933 18.748 10.5807 18.748V22.748C12.0629 22.748 13.263 22.8893 14.1929 23.1349L15.2145 19.2676ZM18.7088 20.9641C17.7491 20.1591 16.5475 19.6197 15.2145 19.2676L14.1929 23.1349C15.1481 23.3872 15.7598 23.7113 16.1384 24.0289L18.7088 20.9641ZM20.7339 23.7088C20.2963 22.6304 19.6034 21.7287 18.7232 20.9762L16.1241 24.0167C16.5822 24.4083 16.8607 24.8019 17.0275 25.2129L20.7339 23.7088ZM21.3341 27.0513C21.3341 25.8669 21.152 24.7391 20.734 23.7088L17.0275 25.2129C17.2139 25.6721 17.3341 26.2713 17.3341 27.0513H21.3341ZM14.9951 29.0513H19.3341V25.0513H14.9951V29.0513ZM13.0147 27.367C13.0193 27.3823 13.0229 27.3948 13.0256 27.4045C13.0283 27.4142 13.0299 27.4203 13.0306 27.423C13.0313 27.4259 13.0307 27.4239 13.0294 27.4177C13.0281 27.4117 13.0255 27.3988 13.0223 27.3801L16.9679 26.7225C16.9369 26.5365 16.8881 26.3579 16.846 26.2176L13.0147 27.367ZM12.9853 27.3978C13.0207 27.4478 13.0478 27.4875 13.0679 27.5183C13.0885 27.5497 13.0979 27.5656 13.0996 27.5686C13.1026 27.5737 13.0881 27.5495 13.0674 27.5022C13.0564 27.4774 13.0408 27.4395 13.0242 27.3904C13.0078 27.3422 12.9868 27.2723 12.9692 27.1845L16.8915 26.4C16.8141 26.0127 16.6428 25.7065 16.5696 25.5788C16.4716 25.4079 16.3578 25.2387 16.2494 25.0858L12.9853 27.3978ZM12.754 27.1758C12.8682 27.2562 12.9401 27.3339 12.9853 27.3978L16.2494 25.0858C15.9277 24.6316 15.5247 24.2344 15.056 23.9046L12.754 27.1758ZM12.053 26.906C12.2737 26.9673 12.4432 27.028 12.5667 27.0811C12.6278 27.1073 12.6736 27.1299 12.706 27.1475C12.722 27.1562 12.7339 27.1631 12.7421 27.1682C12.7503 27.1732 12.7541 27.1759 12.754 27.1758L15.056 23.9046C14.5054 23.5171 13.8218 23.2459 13.1235 23.0519L12.053 26.906ZM10.5483 26.7307C11.1814 26.7307 11.6767 26.8015 12.053 26.906L13.1235 23.0519C12.3341 22.8326 11.4694 22.7307 10.5483 22.7307V26.7307ZM9.19257 26.8636C9.5405 26.7839 9.98154 26.7307 10.5483 26.7307V22.7307C9.73349 22.7307 8.9873 22.807 8.29907 22.9647L9.19257 26.8636ZM8.56413 27.0771C8.62413 27.0407 8.80269 26.953 9.19257 26.8636L8.29907 22.9647C7.65279 23.1128 7.03264 23.3274 6.48821 23.658L8.56413 27.0771ZM24.3206 14.0918H35.114V10.0918H24.3206V14.0918ZM22.3206 10.8398V12.0918H26.3206V10.8398H22.3206ZM34.434 8.83976H24.3206V12.8398H34.434V8.83976ZM32.434 7.11605V10.8398H36.434V7.11605H32.434ZM24.3206 9.11605H34.434V5.11605H24.3206V9.11605ZM20.0357 9.11605H24.3206V5.11605H20.0357V9.11605ZM18.1847 8.28291C18.6221 8.77499 19.2826 9.11605 20.0357 9.11605V5.11605C20.5082 5.11605 20.9096 5.32767 21.1744 5.62547L18.1847 8.28291ZM21.6795 15.9882V6.95419H17.6795V15.9882H21.6795ZM35.114 13.9882H19.6795V17.9882H35.114V13.9882ZM33.114 12.1026V15.9882H37.114V12.1026H33.114ZM33.114 12.0918V12.1026H37.114V12.0918H33.114ZM20.0357 7.86405H28.6488V3.86405H20.0357V7.86405ZM21.1744 7.35463C20.9096 7.65242 20.5082 7.86405 20.0357 7.86405V3.86405C19.2826 3.86405 18.6221 4.20511 18.1847 4.69719L21.1744 7.35463ZM17.6795 2.00002V6.02591H21.6795V2.00002H17.6795ZM35.114 2.06232e-05H19.6795V4.00002H35.114V2.06232e-05ZM37.114 5.88559V2.00002H33.114V5.88559H37.114ZM28.7675 7.88559H35.114V3.88559H28.7675V7.88559ZM28.6488 5.86405C28.6498 7.86405 28.6496 7.86405 28.6493 7.86405C28.6492 7.86405 28.649 7.86405 28.6488 7.86405C28.6485 7.86405 28.6482 7.86405 28.6479 7.86405C28.6472 7.86405 28.6466 7.86404 28.6459 7.86404C28.6446 7.86404 28.6433 7.86404 28.642 7.86403C28.6395 7.86403 28.6369 7.86401 28.6343 7.86399C28.6292 7.86395 28.624 7.86389 28.6188 7.8638C28.6084 7.86363 28.5973 7.86334 28.5854 7.86288C28.5637 7.86204 28.5299 7.86027 28.4874 7.85582C28.4509 7.85198 28.3713 7.84252 28.2691 7.81802C28.2028 7.80214 27.9431 7.73971 27.6581 7.54967L29.8769 4.2215C29.5757 4.02067 29.293 3.95016 29.2015 3.92821C29.074 3.89765 28.9667 3.88415 28.9045 3.87762C28.8365 3.87049 28.7791 3.86738 28.7402 3.86587C28.7197 3.86508 28.7015 3.86463 28.6863 3.86437C28.6787 3.86424 28.6716 3.86416 28.6652 3.86411C28.662 3.86409 28.6589 3.86407 28.656 3.86406C28.6546 3.86405 28.6531 3.86405 28.6518 3.86405C28.6511 3.86405 28.6504 3.86405 28.6497 3.86405C28.6494 3.86405 28.649 3.86405 28.6487 3.86405C28.6486 3.86405 28.6483 3.86405 28.6482 3.86405C28.648 3.86405 28.6477 3.86405 28.6488 5.86405ZM46.1026 27.1632L48.4555 30.3365L51.6686 27.954L49.3157 24.7808L46.1026 27.1632ZM39.9271 27.972H47.7091V23.972H39.9271V27.972ZM37.4954 25.4971C37.4954 26.6708 38.4043 27.972 39.9271 27.972V23.972C40.975 23.972 41.4954 24.8414 41.4954 25.4971H37.4954ZM37.4954 25.2056V25.4971H41.4954V25.2056H37.4954ZM39.9271 22.7307C38.4325 22.7307 37.4954 23.9902 37.4954 25.2056H41.4954C41.4954 25.8814 40.9468 26.7307 39.9271 26.7307V22.7307ZM46.7917 22.7307H39.9271V26.7307H46.7917V22.7307ZM42.3239 22.0566L45.1842 25.9207L48.3992 23.5408L45.539 19.6768L42.3239 22.0566ZM38.0275 22.8667H43.9315V18.8667H38.0275V22.8667ZM40.0275 24.7307V20.8667H36.0275V24.7307H40.0275ZM38.2757 22.7307H38.0275V26.7307H38.2757V22.7307ZM40.7075 25.2056C40.7075 24.0319 39.7985 22.7307 38.2757 22.7307V26.7307C37.2279 26.7307 36.7075 25.8613 36.7075 25.2056H40.7075ZM40.7075 25.4971V25.2056H36.7075V25.4971H40.7075ZM38.2757 27.972C39.7985 27.972 40.7075 26.6708 40.7075 25.4971H36.7075C36.7075 24.8414 37.2279 23.972 38.2757 23.972V27.972ZM38.0275 27.972H38.2757V23.972H38.0275V27.972ZM40.0275 34.8441V25.972H36.0275V34.8441H40.0275ZM42.2585 32.8441H38.0275V36.8441H42.2585V32.8441ZM40.2585 26.4145V34.8441H44.2585V26.4145H40.2585ZM50.1145 33.653L43.8651 25.2234L40.6518 27.6056L46.9012 36.0352L50.1145 33.653ZM54.2822 32.8441H48.5078V36.8441H54.2822V32.8441ZM52.2822 20.8667V34.8441H56.2822V20.8667H52.2822ZM50.0728 22.8667H54.2822V18.8667H50.0728V22.8667ZM52.0728 29.156V20.8667H48.0728V29.156H52.0728ZM48.6458 30.5574L48.6566 30.5682L51.489 27.7438L51.4783 27.733L48.6458 30.5574ZM34.0849 25.4863C34.0849 24.8307 34.6053 23.9612 35.6532 23.9612V27.9612C37.176 27.9612 38.0849 26.6601 38.0849 25.4863H34.0849ZM34.0849 25.1949V25.4863H38.0849V25.1949H34.0849ZM35.6532 26.72C34.6053 26.72 34.0849 25.8505 34.0849 25.1949H38.0849C38.0849 24.0212 37.176 22.72 35.6532 22.72V26.72ZM37.2215 25.1949C37.2215 25.8506 36.7011 26.72 35.6532 26.72V22.72C34.1305 22.72 33.2215 24.0211 33.2215 25.1949H37.2215ZM37.2215 25.4863V25.1949H33.2215V25.4863H37.2215ZM35.6532 23.9612C36.7011 23.9612 37.2215 24.8306 37.2215 25.4863H33.2215C33.2215 26.6601 34.1305 27.9612 35.6532 27.9612V23.9612ZM32.4228 25.4863C32.4228 24.8307 32.9432 23.9612 33.991 23.9612V27.9612C35.5138 27.9612 36.4228 26.6601 36.4228 25.4863H32.4228ZM32.4228 25.1949V25.4863H36.4228V25.1949H32.4228ZM33.991 26.72C32.9432 26.72 32.4228 25.8506 32.4228 25.1949H36.4228C36.4228 24.0211 35.5138 22.72 33.991 22.72V26.72ZM33.2031 26.72H33.991V22.72H33.2031V26.72ZM34.7714 25.1949C34.7714 25.8508 34.2508 26.72 33.2031 26.72V22.72C31.6806 22.72 30.7714 24.0209 30.7714 25.1949H34.7714ZM34.7714 25.4863V25.1949H30.7714V25.4863H34.7714ZM33.2031 23.9612C34.2508 23.9612 34.7714 24.8305 34.7714 25.4863H30.7714C30.7714 26.6603 31.6806 27.9612 33.2031 27.9612V23.9612ZM33.991 23.9612H33.2031V27.9612H33.991V23.9612ZM31.5065 26.4593L27.3618 30.6147L30.1939 33.4395L34.3386 29.2841L31.5065 26.4593ZM32.9117 29.8717H32.9225V25.8717H32.9117V29.8717ZM30.9549 27.7745C30.9549 27.5885 30.9831 27.358 31.0787 27.1092C31.1752 26.8585 31.3823 26.4875 31.8024 26.2075L34.021 29.5358C34.8856 28.9595 34.9549 28.0571 34.9549 27.7745H30.9549ZM32.9117 27.6773C31.2475 28.7866 31.2474 28.7864 31.2472 28.7862C31.2472 28.7861 31.2471 28.7859 31.247 28.7858C31.2468 28.7856 31.2467 28.7853 31.2465 28.7851C31.2462 28.7846 31.2458 28.7841 31.2455 28.7836C31.2448 28.7826 31.2442 28.7816 31.2435 28.7806C31.2422 28.7786 31.2409 28.7766 31.2396 28.7746C31.237 28.7706 31.2344 28.7666 31.2317 28.7625C31.2265 28.7544 31.2209 28.7456 31.215 28.736C31.2044 28.7187 31.1878 28.6909 31.1685 28.6548C31.1523 28.6243 31.116 28.5543 31.0792 28.4576C31.0587 28.4038 30.9549 28.1381 30.9549 27.7745H34.9549C34.9549 27.3947 34.8457 27.1088 34.8171 27.0337C34.7722 26.9157 34.7251 26.8235 34.6981 26.7727C34.668 26.7164 34.6406 26.6704 34.6219 26.6399C34.6119 26.6238 34.603 26.6096 34.5954 26.5979C34.5916 26.5919 34.588 26.5865 34.5848 26.5815C34.5832 26.5791 34.5816 26.5767 34.5801 26.5745C34.5794 26.5734 34.5787 26.5723 34.578 26.5712C34.5776 26.5707 34.5773 26.5702 34.5769 26.5696C34.5768 26.5694 34.5766 26.5691 34.5764 26.5689C34.5763 26.5687 34.5762 26.5686 34.5762 26.5685C34.5761 26.5683 34.5759 26.5681 32.9117 27.6773ZM30.1699 27.764L31.4975 29.0916L34.3259 26.2631L32.9984 24.9356L30.1699 27.764ZM31.487 26.3174C31.205 28.2975 31.2048 28.2974 31.2046 28.2974C31.2045 28.2974 31.2043 28.2973 31.2041 28.2973C31.2038 28.2973 31.2035 28.2972 31.2032 28.2972C31.2026 28.2971 31.2019 28.297 31.2013 28.2969C31.2001 28.2967 31.1989 28.2966 31.1976 28.2964C31.1952 28.296 31.1927 28.2957 31.1902 28.2953C31.1853 28.2945 31.1803 28.2938 31.1752 28.293C31.1651 28.2913 31.1541 28.2895 31.1422 28.2873C31.1208 28.2835 31.0863 28.2767 31.0431 28.266C31.007 28.257 30.9231 28.235 30.8176 28.1928C30.7624 28.1707 30.4599 28.054 30.1699 27.764L32.9984 24.9356C32.6976 24.6348 32.3776 24.5086 32.3021 24.4785C32.1764 24.4282 32.0696 24.3995 32.0119 24.3851C31.9471 24.3689 31.8924 24.3581 31.8561 24.3516C31.8368 24.3481 31.8197 24.3452 31.8054 24.3429C31.7982 24.3418 31.7916 24.3407 31.7855 24.3398C31.7825 24.3394 31.7796 24.3389 31.7768 24.3385C31.7755 24.3383 31.7741 24.3382 31.7728 24.338C31.7722 24.3379 31.7715 24.3378 31.7709 24.3377C31.7706 24.3376 31.7702 24.3376 31.7699 24.3375C31.7698 24.3375 31.7695 24.3375 31.7695 24.3375C31.7692 24.3374 31.769 24.3374 31.487 26.3174ZM29.5982 28.3174H31.487V24.3174H29.5982V28.3174ZM31.3256 27.1465C31.0183 27.9146 30.2923 28.3174 29.5982 28.3174V24.3174C28.7962 24.3174 27.9621 24.7849 27.6117 25.6609L31.3256 27.1465ZM29.501 26.5549C31.2494 25.5837 31.2496 25.584 31.2498 25.5844C31.2498 25.5845 31.25 25.5848 31.2502 25.5851C31.2504 25.5855 31.2507 25.586 31.2509 25.5865C31.2514 25.5874 31.252 25.5883 31.2525 25.5892C31.2535 25.5911 31.2545 25.5929 31.2555 25.5948C31.2576 25.5985 31.2596 25.6023 31.2616 25.606C31.2657 25.6136 31.2698 25.6213 31.2739 25.6293C31.282 25.645 31.2908 25.6624 31.2998 25.6814C31.3164 25.7163 31.341 25.7714 31.3658 25.8426C31.3877 25.9058 31.429 26.0355 31.4501 26.2095C31.4684 26.3611 31.4948 26.7236 31.3256 27.1465L27.6117 25.6609C27.4317 26.1109 27.4567 26.5058 27.4791 26.6907C27.5043 26.8982 27.5549 27.0622 27.5877 27.1565C27.6233 27.2587 27.66 27.3414 27.686 27.3962C27.6998 27.4252 27.7126 27.4507 27.7236 27.4719C27.7291 27.4826 27.7344 27.4925 27.7392 27.5015C27.7416 27.506 27.744 27.5103 27.7462 27.5144C27.7473 27.5164 27.7484 27.5184 27.7495 27.5203C27.75 27.5213 27.7506 27.5223 27.7511 27.5232C27.7513 27.5237 27.7516 27.5242 27.7519 27.5246C27.752 27.5249 27.7522 27.5252 27.7523 27.5253C27.7524 27.5257 27.7526 27.526 29.501 26.5549ZM32.1457 26.3711L30.9152 25.1406L28.0868 27.9691L29.3173 29.1995L32.1457 26.3711ZM30.0841 31.261L32.1457 29.1995L29.3173 26.3711L27.2557 28.4326L30.0841 31.261ZM25.1942 29.1995L27.2557 31.261L30.0841 28.4326L28.0226 26.3711L25.1942 29.1995ZM26.4247 25.1406L25.1942 26.3711L28.0226 29.1995L29.2531 27.9691L26.4247 25.1406ZM26.0143 27.1465C25.6501 26.2361 26.1085 25.5287 26.2389 25.3548L29.4388 27.7549C29.634 27.4946 30.1355 26.6793 29.7282 25.661L26.0143 27.1465ZM27.7417 28.3174C27.0471 28.3174 26.3214 27.9142 26.0143 27.1465L29.7282 25.6609C29.378 24.7854 28.5443 24.3174 27.7417 24.3174V28.3174ZM25.8529 28.3174H27.7417V24.3174H25.8529V28.3174ZM25.7557 26.3606C26.8644 28.0252 26.8642 28.0253 26.864 28.0254C26.8639 28.0255 26.8638 28.0256 26.8636 28.0257C26.8634 28.0259 26.8631 28.026 26.8629 28.0262C26.8624 28.0265 26.8619 28.0268 26.8614 28.0272C26.8604 28.0278 26.8594 28.0285 26.8584 28.0292C26.8564 28.0305 26.8544 28.0318 26.8524 28.0331C26.8485 28.0357 26.8444 28.0383 26.8403 28.0409C26.8322 28.0461 26.8234 28.0517 26.8138 28.0576C26.7965 28.0682 26.7688 28.0848 26.7327 28.1041C26.7022 28.1203 26.6322 28.1565 26.5356 28.1933C26.4818 28.2138 26.2163 28.3174 25.8529 28.3174V24.3174C25.4734 24.3174 25.1876 24.4265 25.1126 24.455C24.9946 24.4999 24.9024 24.5469 24.8517 24.574C24.7953 24.604 24.7494 24.6313 24.7189 24.6501C24.7027 24.66 24.6886 24.669 24.6768 24.6765C24.6709 24.6803 24.6654 24.6839 24.6605 24.6871C24.658 24.6887 24.6557 24.6903 24.6534 24.6918C24.6523 24.6925 24.6512 24.6932 24.6502 24.6939C24.6497 24.6943 24.6491 24.6946 24.6486 24.695C24.6484 24.6951 24.6481 24.6953 24.6479 24.6955C24.6477 24.6956 24.6475 24.6957 24.6475 24.6957C24.6473 24.6959 24.6471 24.696 25.7557 26.3606ZM25.8424 29.1024L27.17 27.7748L24.3415 24.9464L23.014 26.2739L25.8424 29.1024ZM25.8424 26.4682C26.5695 27.1953 26.5695 28.3753 25.8424 29.1024L23.014 26.2739C22.179 27.1089 22.179 28.4616 23.014 29.2966L25.8424 26.4682ZM29.996 30.611L25.8406 26.4664L23.0158 29.2985L27.1712 33.4431L29.996 30.611ZM28.6807 30.0702C28.8943 30.0702 29.1439 30.1074 29.4009 30.2144C29.6556 30.3205 29.8533 30.4683 29.9979 30.6129L27.1694 33.4412C27.5732 33.8451 28.1128 34.0702 28.6807 34.0702V30.0702ZM28.7779 32.0271C27.6688 30.3627 27.669 30.3626 27.6692 30.3625C27.6693 30.3624 27.6695 30.3623 27.6696 30.3622C27.6698 30.3621 27.6701 30.3619 27.6703 30.3617C27.6708 30.3614 27.6713 30.3611 27.6718 30.3607C27.6728 30.3601 27.6738 30.3594 27.6748 30.3588C27.6768 30.3575 27.6788 30.3561 27.6808 30.3548C27.6848 30.3522 27.6888 30.3496 27.6929 30.347C27.701 30.3418 27.7098 30.3362 27.7194 30.3303C27.7367 30.3196 27.7645 30.303 27.8006 30.2838C27.8312 30.2675 27.9012 30.2312 27.9979 30.1944C28.0518 30.1739 28.3173 30.0702 28.6807 30.0702V34.0702C29.0603 34.0702 29.3461 33.9612 29.4213 33.9326C29.5392 33.8877 29.6315 33.8406 29.6823 33.8135C29.7386 33.7835 29.7846 33.7561 29.8151 33.7374C29.8313 33.7274 29.8454 33.7185 29.8572 33.7109C29.8631 33.7071 29.8686 33.7035 29.8735 33.7003C29.876 33.6987 29.8783 33.6971 29.8806 33.6956C29.8817 33.6949 29.8828 33.6942 29.8838 33.6935C29.8844 33.6931 29.8849 33.6928 29.8854 33.6924C29.8857 33.6923 29.8859 33.6921 29.8862 33.6919C29.8863 33.6918 29.8865 33.6917 29.8866 33.6917C29.8867 33.6915 29.8869 33.6914 28.7779 32.0271ZM28.059 26.875L29.9802 24.943L27.1438 22.1225L25.2226 24.0545L28.059 26.875ZM24.6408 25.4539V25.4647H28.6408V25.4539H24.6408ZM28.4654 24.8622C28.8296 25.7727 28.3712 26.4801 28.2408 26.654L25.0408 24.2539C24.8457 24.5141 24.3441 25.3294 24.7515 26.3478L28.4654 24.8622ZM26.7379 23.6914C27.4342 23.6914 28.1589 24.0961 28.4654 24.8623L24.7515 26.3478C25.1011 27.2219 25.9337 27.6914 26.7379 27.6914V23.6914ZM28.7023 23.6914H26.7379V27.6914H28.7023V23.6914ZM30.5912 23.6914H28.7023V27.6914H30.5912V23.6914ZM28.8637 24.8623C29.1702 24.096 29.8949 23.6914 30.5912 23.6914V27.6914C31.3953 27.6914 32.228 27.222 32.5776 26.3478L28.8637 24.8623ZM30.6883 25.4539C28.9399 26.4251 28.9397 26.4247 28.9395 26.4244C28.9394 26.4243 28.9393 26.4239 28.9391 26.4237C28.9389 26.4232 28.9386 26.4228 28.9384 26.4223C28.9378 26.4214 28.9373 26.4204 28.9368 26.4195C28.9358 26.4177 28.9348 26.4158 28.9338 26.4139C28.9317 26.4102 28.9297 26.4065 28.9277 26.4027C28.9236 26.3952 28.9195 26.3874 28.9154 26.3795C28.9072 26.3638 28.8985 26.3464 28.8895 26.3273C28.8729 26.2924 28.8483 26.2374 28.8235 26.1662C28.8016 26.103 28.7603 25.9733 28.7392 25.7993C28.7209 25.6477 28.6945 25.2852 28.8637 24.8622L32.5776 26.3478C32.7576 25.8979 32.7326 25.503 32.7102 25.3181C32.6851 25.1106 32.6344 24.9466 32.6016 24.8523C32.5661 24.7501 32.5293 24.6674 32.5033 24.6126C32.4895 24.5836 32.4767 24.5581 32.4657 24.5369C32.4602 24.5262 32.4549 24.5163 32.4501 24.5073C32.4477 24.5028 32.4454 24.4985 32.4431 24.4944C32.442 24.4924 32.4409 24.4904 32.4398 24.4885C32.4393 24.4875 32.4388 24.4865 32.4382 24.4856C32.438 24.4851 32.4377 24.4846 32.4375 24.4842C32.4373 24.4839 32.4371 24.4836 32.4371 24.4835C32.4369 24.4831 32.4367 24.4828 30.6883 25.4539ZM27.346 24.9509L29.2781 26.8721L32.0985 24.0357L30.1665 22.1146L27.346 24.9509ZM28.562 23.5327C29.28 25.3994 29.2796 25.3996 29.2791 25.3997C29.279 25.3998 29.2786 25.4 29.2783 25.4001C29.2777 25.4003 29.2772 25.4005 29.2766 25.4007C29.2755 25.4012 29.2744 25.4016 29.2732 25.402C29.271 25.4029 29.2687 25.4037 29.2665 25.4046C29.2619 25.4063 29.2574 25.408 29.2528 25.4096C29.2437 25.413 29.2344 25.4163 29.2248 25.4197C29.2059 25.4262 29.1848 25.4332 29.1616 25.4402C29.1202 25.4526 29.0496 25.4721 28.9574 25.487C28.8786 25.4997 28.6968 25.524 28.461 25.4953C28.2353 25.4677 27.7609 25.3658 27.3421 24.947L30.1705 22.1185C29.7247 21.6727 29.2125 21.5573 28.9453 21.5247C28.668 21.4909 28.441 21.5186 28.3204 21.538C28.1864 21.5596 28.0773 21.5892 28.0079 21.6101C27.9707 21.6214 27.9382 21.6321 27.9115 21.6414C27.898 21.6461 27.8855 21.6506 27.8744 21.6547C27.8687 21.6567 27.8634 21.6587 27.8584 21.6606C27.8558 21.6616 27.8534 21.6625 27.851 21.6634C27.8498 21.6639 27.8486 21.6643 27.8475 21.6647C27.8469 21.665 27.8463 21.6652 27.8457 21.6654C27.8454 21.6655 27.845 21.6657 27.8449 21.6657C27.8444 21.6659 27.844 21.6661 28.562 23.5327ZM37.0887 23.9612H37.0348V27.9612H37.0887V23.9612ZM38.8882 25.0882L38.8774 25.0666L35.3 26.8559L35.3108 26.8775L38.8882 25.0882ZM39.2398 27.7853C39.2398 27.0267 39.1766 26.3185 39.0754 25.6729L35.1237 26.2928C35.1951 26.7481 35.2398 27.2487 35.2398 27.7853H39.2398ZM38.7986 31.1903C39.1078 30.1642 39.2398 29.0093 39.2398 27.7853H35.2398C35.2398 28.7415 35.1344 29.4863 34.9687 30.036L38.7986 31.1903ZM37.4278 33.8846C38.0657 33.0912 38.5046 32.166 38.7986 31.1903L34.9687 30.0361C34.7879 30.6362 34.5576 31.0708 34.3103 31.3784L37.4278 33.8846ZM34.9604 35.785C35.9423 35.3306 36.7782 34.6927 37.4279 33.8846L34.3103 31.3784C34.0749 31.6712 33.7451 31.9399 33.2807 32.1547L34.9604 35.785ZM31.9872 36.6695C33.064 36.5028 34.0699 36.2033 34.9708 35.7801L33.2703 32.1596C32.7465 32.4056 32.1118 32.6026 31.3754 32.7165L31.9872 36.6695ZM28.4972 36.9089C29.7869 36.9089 30.9478 36.8284 31.9837 36.67L31.3789 32.716C30.5799 32.8382 29.6253 32.9089 28.4972 32.9089V36.9089ZM20.6236 34.6071C22.5221 36.2796 25.3053 36.9089 28.4972 36.9089V32.9089C25.6881 32.9089 24.0892 32.3293 23.2678 31.6057L20.6236 34.6071ZM17.9058 27.5155C17.9058 30.3855 18.6856 32.8845 20.617 34.6012L23.2744 31.6116C22.4859 30.9106 21.9058 29.6967 21.9058 27.5155H17.9058ZM20.7336 20.7669C18.7314 22.3811 17.9058 24.7729 17.9058 27.5155H21.9058C21.9058 25.5738 22.4617 24.5117 23.2442 23.8809L20.7336 20.7669ZM28.3677 18.6401C25.3065 18.6401 22.6395 19.2304 20.7336 20.7669L23.2441 23.8809C24.1229 23.1724 25.7085 22.6401 28.3677 22.6401V18.6401ZM31.7354 18.8699C30.7166 18.7084 29.5917 18.6401 28.3677 18.6401V22.6401C29.4535 22.6401 30.3578 22.7014 31.1091 22.8205L31.7354 18.8699ZM34.6822 19.718C33.7593 19.3093 32.7746 19.0218 31.7118 18.8663L31.1326 22.8241C31.84 22.9277 32.4743 23.115 33.0625 23.3754L34.6822 19.718ZM37.2194 21.5315C36.522 20.739 35.655 20.1489 34.6822 19.718L33.0625 23.3754C33.6007 23.6138 33.9642 23.8872 34.2165 24.174L37.2194 21.5315ZM38.6947 24.1631C38.3614 23.1633 37.8706 22.2757 37.2231 21.5357L34.2128 24.1698C34.472 24.4659 34.7151 24.8735 34.8999 25.428L38.6947 24.1631ZM38.603 25.1949C38.603 25.6398 38.3901 26.1101 37.9736 26.413L35.621 23.1781C34.967 23.6537 34.603 24.4045 34.603 25.1949H38.603ZM38.603 25.4863V25.1949H34.603V25.4863H38.603ZM37.0348 23.9612C38.0826 23.9612 38.603 24.8307 38.603 25.4863H34.603C34.603 26.6601 35.512 27.9612 37.0348 27.9612V23.9612ZM41.3417 3.86405C40.008 3.86405 38.8668 4.93497 38.8668 6.33895H42.8668C42.8668 7.20328 42.1575 7.86405 41.3417 7.86405V3.86405ZM42.2052 3.86405H41.3417V7.86405H42.2052V3.86405ZM44.6801 6.33895C44.6801 4.97534 43.5688 3.86405 42.2052 3.86405V7.86405C41.3597 7.86405 40.6801 7.18449 40.6801 6.33895H44.6801ZM44.6801 6.63033V6.33895H40.6801V6.63033H44.6801ZM42.2052 9.10524C43.539 9.10524 44.6801 8.03432 44.6801 6.63033H40.6801C40.6801 5.76601 41.3895 5.10524 42.2052 5.10524V9.10524ZM41.3417 9.10524H42.2052V5.10524H41.3417V9.10524ZM38.8668 6.63033C38.8668 7.99395 39.9781 9.10524 41.3417 9.10524V5.10524C42.1873 5.10524 42.8668 5.78479 42.8668 6.63033H38.8668ZM38.8668 6.33895V6.63033H42.8668V6.33895H38.8668ZM44.0293 3.86405C42.6955 3.86405 41.5544 4.93499 41.5544 6.33895H45.5544C45.5544 7.20326 44.845 7.86405 44.0293 7.86405V3.86405ZM46.5042 6.33895C46.5042 4.97536 45.3929 3.86405 44.0293 3.86405V7.86405C43.1838 7.86405 42.5042 7.18447 42.5042 6.33895H46.5042ZM46.5042 6.63033V6.33895H42.5042V6.63033H46.5042ZM44.0293 9.10524C45.3631 9.10524 46.5042 8.0343 46.5042 6.63033H42.5042C42.5042 5.76603 43.2136 5.10524 44.0293 5.10524V9.10524ZM41.5544 6.63033C41.5544 7.99393 42.6657 9.10524 44.0293 9.10524V5.10524C44.8748 5.10524 45.5544 5.78481 45.5544 6.63033H41.5544ZM41.5544 6.33895V6.63033H45.5544V6.33895H41.5544ZM49.2076 14.7157L42.3539 6.28609L39.2503 8.80951L46.104 17.2391L49.2076 14.7157ZM53.9915 13.9774H47.6558V17.9774H53.9915V13.9774ZM51.9915 7.10524V15.9774H55.9915V7.10524H51.9915ZM49.372 9.10524H53.9915V5.10524H49.372V9.10524ZM51.372 10.2785V7.10524H47.372V10.2785H51.372ZM45.2405 8.36681L47.8201 11.5401L50.9239 9.0169L48.3443 5.84366L45.2405 8.36681ZM45.5727 9.10524H46.7924V5.10524H45.5727V9.10524ZM43.0978 6.63033C43.0978 7.96414 44.1688 9.10524 45.5727 9.10524V5.10524C46.437 5.10524 47.0978 5.8146 47.0978 6.63033H43.0978ZM43.0978 6.33895V6.63033H47.0978V6.33895H43.0978ZM45.5727 3.86405C44.239 3.86405 43.0978 4.93497 43.0978 6.33895H47.0978C47.0978 7.20328 46.3885 7.86405 45.5727 7.86405V3.86405ZM45.7778 3.86405H45.5727V7.86405H45.7778V3.86405ZM41.085 3.26153L44.2259 7.12555L47.3298 4.60254L44.1889 0.738512L41.085 3.26153ZM36.161 4.00002H42.637V2.06232e-05H36.161V4.00002ZM38.161 15.9774V2.00002H34.161V15.9774H38.161ZM40.8021 13.9774H36.161V17.9774H40.8021V13.9774ZM38.8021 7.5478V15.9774H42.8021V7.5478H38.8021Z" fill="#87FF4F" mask="url(#path-1-outside-1_223_1528)"/>
</svg>
