<svg width="80" height="51" viewBox="0 0 80 51" fill="none" xmlns="http://www.w3.org/2000/svg">
<path fill-rule="evenodd" clip-rule="evenodd" d="M16.2986 5.91255C15.9023 5.91255 15.572 6.22635 15.572 6.63924V7.08508C15.572 7.48145 15.9023 7.81177 16.2986 7.81177H17.6199C18.0162 7.81177 18.3465 7.48145 18.3465 7.08508V6.63924C18.3465 6.24287 18.0162 5.91255 17.6199 5.91255H16.2986ZM20.411 5.91255C20.0146 5.91255 19.6843 6.22635 19.6843 6.63924V7.08508C19.6843 7.48145 20.0146 7.81177 20.411 7.81177C20.8073 7.81177 21.1377 7.48145 21.1377 7.08508V6.63924C21.1377 6.24287 20.8073 5.91255 20.411 5.91255ZM25.1344 21.3875H1.3026H0.90625V14.5666L14.9774 5.94551H0.90625V0H25.1344V5.99511C25.0353 5.94556 24.9197 5.91255 24.8041 5.91255H22.7562C22.3598 5.91255 22.0295 6.22635 22.0295 6.63924V7.08508C22.0295 7.48145 22.3598 7.81177 22.7562 7.81177H23.6315L11.2945 15.4749H25.1344V21.3875ZM8.45589 35.7559C7.99346 36.0367 7.63012 36.3999 7.36587 36.8293L7.39888 36.7964C7.11812 37.2423 6.95299 37.6717 6.85389 38.0845C6.77132 38.4974 6.72179 38.9599 6.72179 39.4719C6.72179 40.182 6.82087 40.8096 7.01906 41.3546C7.23376 41.8996 7.56404 42.3951 8.02647 42.8575C8.48891 43.32 9.13301 43.6668 9.99181 43.9145C10.8341 44.1623 11.825 44.2778 13.0967 44.2778C14.3684 44.2778 15.4584 44.1787 16.3833 43.9806C17.3081 43.7824 17.9853 43.5346 18.4147 43.2539C18.8276 42.9566 19.1744 42.6759 19.4221 42.3786C19.6698 42.0813 19.8185 41.8336 19.8515 41.6354L19.9011 41.3381H26.5403C26.5403 42.3786 26.4247 43.3199 26.177 44.1622C25.9458 45.0045 25.5163 45.8302 24.9052 46.623C24.2942 47.4157 23.5014 48.0764 22.527 48.6049C21.5526 49.1334 20.2809 49.5628 18.7285 49.8766C17.176 50.1904 15.3593 50.3555 13.3114 50.3555C10.7846 50.3555 8.6706 50.1408 6.96951 49.7279C5.26842 49.315 3.89763 48.6545 2.87367 47.7461C1.8332 46.8543 1.10652 45.7642 0.660607 44.476C0.231206 43.1878 0 41.6189 0 39.7526C0 37.7377 0.280728 36.0201 0.842253 34.5833C1.40378 33.1629 2.26259 32.0068 3.38564 31.148C4.50869 30.2727 5.87948 29.6452 7.46496 29.2654C9.05044 28.8855 10.9497 28.6873 13.1297 28.6873C15.574 28.6873 17.688 28.9184 19.4386 29.3809C21.1893 29.8433 22.5766 30.5039 23.6005 31.3627C24.6245 32.2381 25.3677 33.229 25.8301 34.3686C26.2925 35.5081 26.5238 36.8294 26.5238 38.3323H19.8845C19.868 38.2332 19.835 38.1011 19.7855 37.936C19.7524 37.7708 19.5873 37.49 19.3065 37.0937C19.0258 36.6973 18.6624 36.3339 18.2165 36.0201C17.7706 35.7063 17.0935 35.409 16.2016 35.1613C15.3098 34.9135 14.2693 34.7815 13.0802 34.7815C12.0232 34.7815 11.1149 34.8805 10.3221 35.0622C9.5294 35.2439 8.91832 35.4751 8.45589 35.7559ZM50.6717 15.4419H34.1563V13.5262H49.6313V7.82836H34.1563H27.5997C27.385 7.82836 27.1868 7.72933 27.0547 7.58069V21.4041H50.6717V15.4585V15.4419ZM40.779 5.91255H27.5997C27.385 5.91255 27.1868 6.01158 27.0547 6.16022V0H50.6717V5.94552H40.9607C40.9111 5.91248 40.779 5.91255 40.779 5.91255ZM73.5397 41.5363L69.9393 36.6808H58.0317C57.6683 36.6808 57.3711 36.3505 57.3711 35.9541V35.5081C57.3711 35.0952 57.6683 34.7814 58.0317 34.7814H68.5355L64.1589 28.8689H55.125V34.7814H55.5048C55.8682 34.7814 56.1654 35.1118 56.1654 35.5081V35.9541C56.1654 36.3505 55.8682 36.6808 55.5048 36.6808H55.125V50.2564H61.599V37.3579L71.1615 50.2564H79.9972V28.8689H73.5562V41.5528L73.5397 41.5363ZM51.4944 36.6644C51.8578 36.6644 52.1551 36.3341 52.1551 35.9378V35.4918C52.1551 35.0954 51.8578 34.7651 51.4944 34.7651C51.1311 34.7651 50.8338 35.0954 50.8338 35.4918V35.9378C50.8338 36.3341 51.1311 36.6644 51.4944 36.6644ZM48.9511 36.6644C49.3144 36.6644 49.6117 36.3341 49.6117 35.9378V35.4918C49.6117 35.0954 49.3144 34.7651 48.9511 34.7651H47.7455C47.3821 34.7651 47.0848 35.0954 47.0848 35.4918V35.9378C47.0848 36.3341 47.3821 36.6644 47.7455 36.6644H48.9511ZM40.9741 45.9461L47.316 39.5877H47.2995C47.3491 39.5547 47.3656 39.4886 47.3656 39.439C47.3656 39.3895 47.2995 39.2903 47.2995 39.2903L45.2681 37.259C45.2351 37.2259 45.1195 37.2095 45.1195 37.2095H42.2293C42.1467 37.2095 42.0641 37.2589 42.0311 37.3415C41.9981 37.4241 42.0806 37.5728 42.0806 37.5728L43.9634 39.4555L40.809 42.6099L37.6545 39.4555L39.5373 37.5728C39.5868 37.5067 39.6199 37.4241 39.5868 37.3415C39.5538 37.2589 39.4712 37.2095 39.3887 37.2095H36.4985C36.4489 37.2095 36.3498 37.2755 36.3498 37.2755L34.3184 39.3069C34.2358 39.3894 34.2358 39.5215 34.3184 39.6041L40.6769 45.9461C40.7264 45.9956 40.7759 46.0121 40.8255 46.0121C40.875 46.0121 40.9741 45.9461 40.9741 45.9461ZM40.6438 32.9485L37.7041 35.9047V35.8882C37.6545 35.9542 37.6215 36.0368 37.6545 36.1194C37.6875 36.202 37.7701 36.2515 37.8527 36.2515H40.8585H43.7487C43.8313 36.2515 43.9138 36.202 43.9469 36.1194C43.9799 36.0368 43.8973 35.8882 43.8973 35.8882L40.9411 32.9485C40.8585 32.8659 40.6438 32.9485 40.6438 32.9485ZM53.6084 36.6644H53.691L53.7075 36.6975C53.8396 37.5398 53.9222 38.4646 53.9222 39.4555C53.9222 41.1236 53.7406 42.577 53.3772 43.7826C53.0139 44.9882 52.5019 46.0287 51.8248 46.871C51.1476 47.7132 50.2558 48.4069 49.1492 48.9189C48.0592 49.4308 46.8041 49.8107 45.4168 50.0254C44.013 50.2401 42.3944 50.3557 40.5447 50.3557C35.9534 50.3557 32.6008 49.4309 30.5198 47.5976C28.4389 45.7479 27.3984 42.9073 27.3984 39.0427C27.3984 35.4588 28.4554 32.8163 30.5859 31.0987C32.7164 29.3811 35.9699 28.5223 40.3465 28.5223C42.1137 28.5223 43.6661 28.6214 45.0204 28.8361C46.3746 29.0343 47.6133 29.3976 48.7694 29.9096C49.9255 30.4216 50.8669 31.0822 51.5935 31.908C52.2872 32.7007 52.8487 33.6916 53.2451 34.8807C53.0634 35.0129 52.9478 35.2276 52.9478 35.4918V35.9378C52.9478 36.3341 53.2451 36.6644 53.6084 36.6644ZM59.4741 6.63924C59.4741 6.22635 59.8045 5.91255 60.2008 5.91255H61.5221C61.9185 5.91255 62.2488 6.24287 62.2488 6.63924V7.08508C62.2488 7.49797 61.9185 7.81177 61.5221 7.81177H60.2008C59.8045 7.81177 59.4741 7.48145 59.4741 7.08508V6.63924ZM63.5865 6.63924C63.5865 6.22635 63.9168 5.91255 64.3132 5.91255C64.7096 5.91255 65.0399 6.24287 65.0399 6.63924V7.08508C65.0399 7.49797 64.7096 7.81177 64.3132 7.81177C63.9168 7.81177 63.5865 7.48145 63.5865 7.08508V6.63924ZM59.3751 8.48896L69.8624 21.3875H79.5569V7.81177H72.4883V12.6673L68.5411 7.81177H66.6749C66.262 7.81177 65.9482 7.48145 65.9482 7.08508V6.63924C65.9482 6.22635 66.2785 5.91255 66.6749 5.91255H66.9887L62.1827 0H52.2734V21.3875H59.3751V8.48896ZM72.453 0H79.5216V5.91255H72.453V0Z" fill="white"/>
</svg>
